<svg width="65" height="75" viewBox="0 0 65 75" fill="none" xmlns="http://www.w3.org/2000/svg">
<path d="M26.2729 48.1455L26.2736 48.145L32.3324 43.6041L38.3939 48.1476L38.3947 48.1482C40.7127 49.8618 44.0066 48.2109 44.0066 45.3309V30.4779C47.4698 27.2493 49.4581 22.7203 49.4581 17.977C49.4594 8.53294 41.7764 0.85 32.3324 0.85C22.8884 0.85 15.2055 8.53294 15.2055 17.977C15.2055 22.7203 17.1951 27.2493 20.6582 30.4779V45.3309C20.6582 48.2108 23.9547 49.8646 26.2729 48.1455ZM31.5379 42.2136L25.3234 46.872C24.0536 47.8138 22.2473 46.913 22.2473 45.3321V31.8078C24.7733 33.6474 28.0639 34.897 31.5379 35.059V42.2136ZM42.4176 45.3309C42.4176 46.9069 40.6137 47.8121 39.3443 46.8735C39.3442 46.8734 39.344 46.8733 39.3439 46.8732L33.127 42.2136V35.0732C36.4693 34.9165 39.774 33.7282 42.4176 31.8073V45.3309ZM16.7945 17.977C16.7945 9.40891 23.7656 2.43906 32.3324 2.43906C40.9005 2.43906 47.8703 9.4089 47.8703 17.977C47.8703 26.5322 40.9185 33.502 32.3324 33.502C23.7425 33.502 16.7945 26.5271 16.7945 17.977Z" fill="#7E7E7E" stroke="#7E7E7E" stroke-width="0.3"/>
<path d="M43.9319 50.7085L43.932 50.7084C45.2578 49.3839 47.3812 49.2197 48.7647 50.3556C50.3999 51.6922 50.4983 54.1248 49.0322 55.5883L43.9319 50.7085ZM43.9319 50.7085L36.614 58.0264C35.0028 59.6363 34.1156 61.7782 34.1156 64.0571V73.7444V73.8944M43.9319 50.7085L34.1156 73.8944M34.1156 73.8944H34.2656M34.1156 73.8944H34.2656M34.2656 73.8944H35.5547H35.7047M34.2656 73.8944H35.7047M35.7047 73.8944V73.7444M35.7047 73.8944V73.7444M35.7047 73.7444V64.0571C35.7047 62.2019 36.4262 60.4599 37.7374 59.15L37.7374 59.15M35.7047 73.7444L37.7374 59.15M37.7374 59.15L45.0554 51.8321C45.8216 51.067 47.01 50.9741 47.7586 51.5855C48.6814 52.3407 48.699 53.6732 47.9087 54.4648C47.9087 54.4648 47.9086 54.4649 47.9086 54.4649L45.0935 57.2813L37.7374 59.15ZM44.6544 61.2668L44.6543 61.2667C43.8101 60.0774 44.0064 58.3672 45.0934 57.2814L44.6544 61.2668ZM44.6544 61.2668C45.5733 62.5597 47.2939 62.9293 48.6557 62.125L57.8813 56.6904L57.8815 56.6903M44.6544 61.2668L57.8815 56.6903M57.8815 56.6903C58.5136 56.3166 58.9065 55.6295 58.9065 54.8957V48.1011C58.9065 47.1469 59.5529 46.3395 60.3841 46.2047L60.3846 46.2046M57.8815 56.6903L60.3846 46.2046M60.3846 46.2046C61.5267 46.0154 62.4737 46.8992 62.4737 47.9631M60.3846 46.2046L62.4737 47.9631M62.4737 47.9631V56.9079M62.4737 47.9631V56.9079M62.4737 56.9079C62.4737 57.5047 62.1767 58.0599 61.6782 58.3931L62.4737 56.9079ZM46.2156 58.4036L49.0321 55.5884L61.678 58.3933L49.0828 66.7797C49.0828 66.7797 49.0828 66.7797 49.0828 66.7798C47.7815 67.6455 47.005 69.0962 47.005 70.6597V73.7457V73.8957H47.155H48.444H48.594V73.7457V70.6597C48.594 69.6296 49.1052 68.6735 49.9632 68.102C49.9632 68.102 49.9632 68.102 49.9632 68.1019L62.5586 59.7153L62.5587 59.7153C63.4988 59.0881 64.0615 58.0384 64.0615 56.9079V47.9631C64.0615 45.8881 62.2036 44.2952 60.1284 44.6363C58.5183 44.8979 57.3162 46.3917 57.3162 48.1011V54.8957C57.3162 55.0689 57.2223 55.2329 57.0726 55.3222C57.0725 55.3223 57.0724 55.3224 57.0723 55.3224L47.8472 60.7567C47.2009 61.137 46.3857 60.9607 45.9468 60.3452C45.5582 59.7975 45.6574 58.9618 46.2156 58.4036C46.2156 58.4036 46.2156 58.4036 46.2156 58.4036Z" fill="#7E7E7E" stroke="#7E7E7E" stroke-width="0.3"/>
<path d="M2.10277 59.714L2.10288 59.714L14.6983 68.1007C14.6983 68.1007 14.6983 68.1007 14.6983 68.1007C15.5563 68.6722 16.0675 69.6283 16.0675 70.6584V73.7444V73.8944H16.2175H17.5065H17.6565V73.7444V70.6584C17.6565 69.0949 16.8799 67.6442 15.5787 66.7785C15.5787 66.7785 15.5787 66.7784 15.5787 66.7784L2.98364 58.392C2.98359 58.392 2.98354 58.392 2.98349 58.392C2.4861 58.0587 2.18906 57.5047 2.18906 56.9066V47.9618C2.18906 46.8948 3.13038 46.0188 4.27875 46.2034C5.10994 46.3383 5.75625 47.1456 5.75625 48.0998V54.8944C5.75625 55.6282 6.14919 56.3153 6.78124 56.689L6.78144 56.6891L16.0072 62.1238C17.3689 62.9267 19.0894 62.5571 20.0083 61.2656C20.8541 60.0774 20.6563 58.3657 19.5707 57.2801L16.7541 54.4635C15.9663 53.6757 15.9815 52.338 16.9041 51.5842L16.9041 51.5842C17.6527 50.9716 18.8423 51.0656 19.6073 51.8307L26.9253 59.1487C28.2365 60.4599 28.9581 62.2019 28.9581 64.0558V73.7431V73.8931H29.1081H30.3972H30.5471V73.7431V64.0558C30.5471 61.7782 29.66 59.635 28.0488 58.0252C28.0488 58.0252 28.0488 58.0251 28.0488 58.0251L20.7308 50.7072C19.4061 49.3824 17.2853 49.2199 15.8982 50.3542L15.8982 50.3542C14.2642 51.6908 14.1631 54.1221 15.6293 55.5883L18.4459 58.4049C19.0027 58.9617 19.102 59.7988 18.7121 60.3465L18.712 60.3466C18.2745 60.9619 17.4594 61.1383 16.813 60.758L7.58727 55.3233L7.58692 55.3231C7.43737 55.2356 7.34402 55.0724 7.34402 54.897V48.1023C7.34402 46.393 6.14199 44.8993 4.53322 44.6376C2.45363 44.2925 0.6 45.8924 0.6 47.9618V56.9066C0.6 58.0371 1.16266 59.0868 2.10277 59.714Z" fill="#7E7E7E" stroke="#7E7E7E" stroke-width="0.3"/>
<path d="M32.3325 29.7899C38.8487 29.7899 44.1493 24.4893 44.1493 17.9731C44.1493 11.4569 38.8487 6.15625 32.3325 6.15625C25.8162 6.15625 20.5156 11.4569 20.5156 17.9731C20.5156 24.4893 25.8162 29.7899 32.3325 29.7899ZM32.3325 7.44531C38.1371 7.44531 42.8602 12.1684 42.8602 17.9731C42.8602 23.7777 38.1371 28.5009 32.3325 28.5009C26.5278 28.5009 21.8047 23.7777 21.8047 17.9731C21.8047 12.1684 26.5278 7.44531 32.3325 7.44531Z" fill="#7E7E7E"/>
<path d="M27.3089 20.4047L27.3089 20.4043C27.339 20.2318 27.2821 20.0572 27.156 19.9341L25.4596 18.2803L25.4596 18.2803C24.2016 17.0528 24.8962 14.9137 26.6361 14.6626L28.9794 14.3223C28.9794 14.3223 28.9794 14.3223 28.9794 14.3223C29.1523 14.2971 29.3034 14.1874 29.3808 14.0305L27.3089 20.4047ZM27.3089 20.4047L26.908 22.7404L26.908 22.7405C26.6111 24.4761 28.4339 25.7922 29.986 24.9766L29.9162 24.8438L29.986 24.9766L32.0833 23.8744L32.0834 23.8744C32.238 23.7931 32.423 23.7928 32.5794 23.8745C32.5794 23.8745 32.5795 23.8746 32.5796 23.8746L34.6753 24.9766L34.6754 24.9767C36.2403 25.7965 38.0487 24.4644 37.7546 22.7406L37.7546 22.7404L37.3537 20.4047L37.3536 20.4043C37.3234 20.2308 37.3799 20.0555 37.5049 19.9345L37.5053 19.9341L39.2002 18.2804C40.4629 17.0525 39.7605 14.9137 38.0254 14.6626C38.0253 14.6626 38.0253 14.6626 38.0253 14.6626L35.6819 14.3223L35.6818 14.3222C35.508 14.2971 35.358 14.1876 35.2805 14.0305C35.2805 14.0305 35.2805 14.0305 35.2805 14.0305L34.2325 11.9063L27.3089 20.4047ZM30.4288 11.9062L29.3808 14.0305L34.2325 11.9061C33.4583 10.3331 31.2071 10.3274 30.4288 11.9061C30.4288 11.9062 30.4288 11.9062 30.4288 11.9062ZM26.8647 16.2343L26.8647 16.2343L29.208 15.8941C29.9004 15.7942 30.4969 15.3599 30.8061 14.733L30.8061 14.733L31.8541 12.6088C31.8541 12.6088 31.8541 12.6088 31.8541 12.6088C32.0504 12.2122 32.6122 12.2122 32.8085 12.6088C32.8085 12.6088 32.8085 12.6088 32.8085 12.6088L33.8564 14.733L33.8566 14.7333C34.1671 15.3599 34.7635 15.7928 35.4531 15.8927C35.4531 15.8927 35.4531 15.8927 35.4532 15.8928L37.7965 16.233C37.7965 16.233 37.7965 16.233 37.7965 16.233C38.2361 16.2975 38.4076 16.8332 38.0923 17.1414L36.3975 18.7937C35.8965 19.2807 35.6692 19.9828 35.787 20.6719L35.787 20.672L36.1879 23.0065L36.188 23.0067C36.2624 23.436 35.8156 23.775 35.4137 23.5686C35.4136 23.5685 35.4134 23.5684 35.4132 23.5683L33.3183 22.4668L33.3181 22.4667C32.6996 22.1422 31.9617 22.1421 31.3443 22.4668L29.247 23.5689L29.2469 23.569C28.8577 23.7741 28.4003 23.4455 28.4747 23.0077C28.4747 23.0077 28.4747 23.0076 28.4747 23.0075L28.8756 20.672L28.8756 20.6719C28.9935 19.9824 28.7645 19.282 28.2654 18.794L28.2652 18.7938L26.5688 17.1399L26.5685 17.1396C26.2531 16.8342 26.4269 16.2979 26.8647 16.2343Z" fill="#861F41" stroke="#861F41" stroke-width="0.3"/>
<path d="M5.26172 20.4859H10.418C11.5669 20.4859 12.5016 19.5512 12.5016 18.4023C12.5016 17.2534 11.5669 16.3187 10.418 16.3187H5.26172C4.11282 16.3187 3.17812 17.2534 3.17812 18.4023C3.17812 19.5512 4.11282 20.4859 5.26172 20.4859ZM5.26172 17.9078H10.418C10.6909 17.9078 10.9125 18.1294 10.9125 18.4023C10.9125 18.6753 10.6909 18.8969 10.418 18.8969H5.26172C4.98878 18.8969 4.76719 18.6753 4.76719 18.4023C4.76719 18.1294 4.98878 17.9078 5.26172 17.9078Z" fill="#861F41" stroke="#861F41" stroke-width="0.3"/>
<path d="M10.0132 13.209L10.0132 13.2091C10.4189 13.6148 10.9538 13.8189 11.4869 13.8189C12.0198 13.8189 12.555 13.6162 12.9609 13.2089C13.7734 12.3962 13.7733 11.0742 12.9607 10.2615L12.9607 10.2615L9.31395 6.61607C9.31394 6.61606 9.31393 6.61605 9.31393 6.61605C8.50125 5.80339 7.18039 5.80339 6.36771 6.61607C5.55504 7.42874 5.55503 8.7496 6.36769 9.56228C6.3677 9.56229 6.36771 9.56229 6.36771 9.5623L10.0132 13.209ZM8.19045 7.73956L8.19047 7.73958L11.8372 11.385C11.8372 11.385 11.8372 11.385 11.8372 11.3851C12.0298 11.5777 12.0302 11.8915 11.8369 12.0858L11.9433 12.1916L11.8369 12.0858C11.6456 12.2781 11.3321 12.2798 11.1365 12.0854C11.1365 12.0854 11.1364 12.0853 11.1364 12.0853L7.49123 8.43882L7.49094 8.43853C7.29876 8.24733 7.29823 7.93269 7.48979 7.7397C7.58711 7.64359 7.71364 7.5953 7.84019 7.5953C7.96761 7.5953 8.09377 7.64289 8.19045 7.73956Z" fill="#861F41" stroke="#861F41" stroke-width="0.3"/>
<path d="M12.9607 26.5432L12.9607 26.5431L10.1192 23.7017L10.0132 23.5956L10.0131 23.5957L6.36771 27.2424C5.55503 28.0551 5.55503 29.3759 6.36771 30.1886C7.18039 31.0013 8.50125 31.0013 9.31393 30.1886C9.31393 30.1886 9.31394 30.1886 9.31395 30.1886L12.9607 26.5432ZM8.18918 29.0638L8.18916 29.0638C7.99637 29.2566 7.68271 29.2566 7.48992 29.0638C7.29714 28.871 7.29714 28.5574 7.48992 28.3646L7.48994 28.3646L11.1354 24.7178C11.3283 24.5249 11.6419 24.5239 11.8357 24.7177C12.0289 24.912 12.0285 25.2257 11.8359 25.4183L8.18918 29.0638Z" fill="#861F41" stroke="#861F41" stroke-width="0.3"/>
<path d="M53.2299 18.4023C53.2299 19.5512 54.1646 20.4859 55.3135 20.4859H60.4697C61.6186 20.4859 62.5533 19.5512 62.5533 18.4023C62.5533 17.2534 61.6186 16.3187 60.4697 16.3187H55.3135C54.1646 16.3187 53.2299 17.2534 53.2299 18.4023ZM60.9643 18.4023C60.9643 18.6751 60.7416 18.8969 60.4697 18.8969H55.3135C55.0416 18.8969 54.8189 18.6751 54.8189 18.4023C54.8189 18.1296 55.0416 17.9078 55.3135 17.9078H60.4697C60.7427 17.9078 60.9643 18.1294 60.9643 18.4023Z" fill="#861F41" stroke="#861F41" stroke-width="0.3"/>
<path d="M59.3658 30.1885C58.5543 31.0013 57.2308 31.0013 56.4193 30.1885L52.774 26.5431C51.9613 25.7305 51.9613 24.4083 52.7739 23.5957C53.5853 22.7829 54.9088 22.7829 55.7202 23.5956L59.3658 30.1885ZM59.3658 30.1885C60.1783 29.3758 60.1783 28.055 59.3657 27.2424C59.3657 27.2424 59.3657 27.2424 59.3657 27.2424L55.7203 23.5957L59.3658 30.1885ZM58.2409 28.3659L58.2409 28.3659C58.4337 28.5587 58.4337 28.8723 58.2409 29.0651C58.0481 29.2579 57.7344 29.2579 57.5416 29.0651L53.8964 25.4199C53.8964 25.4199 53.8964 25.4198 53.8963 25.4198C53.7031 25.2255 53.7036 24.9117 53.8962 24.7191C54.089 24.5263 54.4026 24.5263 54.5954 24.7191C54.5954 24.7191 54.5954 24.7191 54.5954 24.7191L58.2409 28.3659Z" fill="#861F41" stroke="#861F41" stroke-width="0.3"/>
<path d="M58.2409 8.44009L58.2409 8.44011L54.5954 12.0868C54.4026 12.2796 54.089 12.2796 53.8962 12.0868C53.7034 11.8941 53.7034 11.5791 53.8962 11.3863L57.5416 7.74085C57.7344 7.54807 58.0481 7.54807 58.2409 7.74085C58.4337 7.93364 58.4337 8.2473 58.2409 8.44009ZM55.7203 13.209L59.3657 9.5623C60.1783 8.74962 60.1783 7.42875 59.3657 6.61607C58.5542 5.80336 57.2307 5.80339 56.4193 6.61616L52.774 10.2615C51.9613 11.0742 51.9613 12.3964 52.774 13.2091C53.5842 14.0218 54.909 14.0217 55.7203 13.209Z" fill="#861F41" stroke="#861F41" stroke-width="0.3"/>
</svg>
