<svg width="65" height="64" viewBox="0 0 65 64" fill="none" xmlns="http://www.w3.org/2000/svg">
<path d="M24.25 5C23.6567 5 23.0766 5.17595 22.5833 5.50559C22.0899 5.83524 21.7054 6.30377 21.4784 6.85195C21.2513 7.40013 21.1919 8.00333 21.3076 8.58527C21.4234 9.16721 21.7091 9.70176 22.1287 10.1213C22.5482 10.5409 23.0828 10.8266 23.6647 10.9424C24.2467 11.0581 24.8499 10.9987 25.3981 10.7716C25.9462 10.5446 26.4148 10.1601 26.7444 9.66671C27.0741 9.17336 27.25 8.59334 27.25 8C27.25 7.20435 26.9339 6.44129 26.3713 5.87868C25.8087 5.31607 25.0457 5 24.25 5ZM24.25 9C24.0522 9 23.8589 8.94135 23.6944 8.83147C23.53 8.72159 23.4018 8.56541 23.3261 8.38268C23.2504 8.19996 23.2306 7.99889 23.2692 7.80491C23.3078 7.61093 23.403 7.43275 23.5429 7.29289C23.6827 7.15304 23.8609 7.0578 24.0549 7.01921C24.2489 6.98063 24.45 7.00043 24.6327 7.07612C24.8154 7.15181 24.9716 7.27998 25.0815 7.44443C25.1914 7.60888 25.25 7.80222 25.25 8C25.25 8.26522 25.1446 8.51957 24.9571 8.70711C24.7696 8.89464 24.5152 9 24.25 9Z" fill="#7E7E7E"/>
<path d="M11.25 33H15.25V35H11.25V33Z" fill="#7E7E7E"/>
<path d="M17.25 33H32.25V35H17.25V33Z" fill="#7E7E7E"/>
<path d="M11.25 39H15.25V41H11.25V39Z" fill="#7E7E7E"/>
<path d="M11.25 45H15.25V47H11.25V45Z" fill="#7E7E7E"/>
<path d="M11.25 51H15.25V53H11.25V51Z" fill="#7E7E7E"/>
<path d="M61.25 35H60.25C57.0058 34.9919 53.8502 33.9401 51.25 32L48.85 30.2C48.6776 30.0686 48.4668 29.9975 48.25 29.9975C48.0332 29.9975 47.8224 30.0686 47.65 30.2L46.25 31.25V11C46.2476 10.2051 45.9308 9.4434 45.3687 8.8813C44.8066 8.31921 44.0449 8.00238 43.25 8H35.07C34.8624 7.41726 34.4804 6.91262 33.9758 6.55475C33.4712 6.19689 32.8686 6.00319 32.25 6H29.91C29.4977 4.82802 28.7318 3.81292 27.718 3.09483C26.7041 2.37674 25.4924 1.99108 24.25 1.99108C23.0076 1.99108 21.7959 2.37674 20.782 3.09483C19.7682 3.81292 19.0023 4.82802 18.59 6H16.25C15.6314 6.00319 15.0288 6.19689 14.5242 6.55475C14.0196 6.91262 13.6376 7.41726 13.43 8H5.25C4.45508 8.00238 3.6934 8.31921 3.1313 8.8813C2.56921 9.4434 2.25237 10.2051 2.25 11V59C2.25237 59.7949 2.56921 60.5566 3.1313 61.1187C3.6934 61.6808 4.45508 61.9976 5.25 62H43.25C43.7029 61.9971 44.1494 61.8922 44.5562 61.6931C44.963 61.494 45.3198 61.2058 45.6 60.85L47.82 61.9C47.9538 61.9658 48.1009 61.9999 48.25 61.9999C48.3991 61.9999 48.5462 61.9658 48.68 61.9L57.46 57.73C58.9081 56.9684 60.1201 55.8249 60.9645 54.4235C61.8089 53.022 62.2534 51.4162 62.25 49.78V36C62.25 35.7348 62.1446 35.4804 61.9571 35.2929C61.7696 35.1054 61.5152 35 61.25 35ZM35.25 10H43.25C43.5152 10 43.7696 10.1054 43.9571 10.2929C44.1446 10.4804 44.25 10.7348 44.25 11V32.69C43.6102 33.089 42.9417 33.44 42.25 33.74V13C42.25 12.7348 42.1446 12.4804 41.9571 12.2929C41.7696 12.1054 41.5152 12 41.25 12H35.25V10ZM15.25 9C15.25 8.73478 15.3554 8.48043 15.5429 8.29289C15.7304 8.10536 15.9848 8 16.25 8H19.35C19.5811 8.00235 19.8058 7.92359 19.9848 7.77742C20.1639 7.63125 20.286 7.42692 20.33 7.2C20.5136 6.29577 21.0042 5.48282 21.7186 4.8989C22.433 4.31498 23.3273 3.99599 24.25 3.99599C25.1727 3.99599 26.067 4.31498 26.7814 4.8989C27.4958 5.48282 27.9864 6.29577 28.17 7.2C28.214 7.42692 28.3361 7.63125 28.5152 7.77742C28.6942 7.92359 28.9189 8.00235 29.15 8H32.25C32.5152 8 32.7696 8.10536 32.9571 8.29289C33.1446 8.48043 33.25 8.73478 33.25 9V13H15.25V9ZM14.25 15H34.25C34.5152 15 34.7696 14.8946 34.9571 14.7071C35.1446 14.5196 35.25 14.2652 35.25 14H40.25V34.44C38.9479 34.8058 37.6025 34.9942 36.25 35H35.25C34.9848 35 34.7304 35.1054 34.5429 35.2929C34.3554 35.4804 34.25 35.7348 34.25 36V39H17.25V41H34.25V45H17.25V47H34.25V49.78C34.2514 50.1879 34.2781 50.5954 34.33 51H17.25V53H34.86C35.2914 54.1168 35.9407 55.1366 36.77 56H8.25V14H13.25C13.25 14.2652 13.3554 14.5196 13.5429 14.7071C13.7304 14.8946 13.9848 15 14.25 15ZM43.25 60H5.25C4.98478 60 4.73043 59.8946 4.54289 59.7071C4.35536 59.5196 4.25 59.2652 4.25 59V11C4.25 10.7348 4.35536 10.4804 4.54289 10.2929C4.73043 10.1054 4.98478 10 5.25 10H13.25V12H7.25C6.98478 12 6.73043 12.1054 6.54289 12.2929C6.35536 12.4804 6.25 12.7348 6.25 13V57C6.25 57.2652 6.35536 57.5196 6.54289 57.7071C6.73043 57.8946 6.98478 58 7.25 58H39.61L43.63 59.91C43.5104 59.9645 43.3813 59.9951 43.25 60ZM60.25 49.78C60.2537 51.0453 59.912 52.2877 59.2617 53.3732C58.6115 54.4587 57.6774 55.3462 56.56 55.94L48.25 59.89L39.96 55.95C38.839 55.3562 37.9011 54.4679 37.2474 53.3807C36.5937 52.2935 36.2488 51.0486 36.25 49.78V37C39.9271 36.9928 43.504 35.8005 46.45 33.6L48.25 32.25L50.05 33.6C52.996 35.8005 56.5729 36.9928 60.25 37V49.78Z" fill="#7E7E7E"/>
<path d="M30.25 21H27.25V18C27.25 17.7348 27.1446 17.4804 26.9571 17.2929C26.7696 17.1054 26.5152 17 26.25 17H22.25C21.9848 17 21.7304 17.1054 21.5429 17.2929C21.3554 17.4804 21.25 17.7348 21.25 18V21H18.25C17.9848 21 17.7304 21.1054 17.5429 21.2929C17.3554 21.4804 17.25 21.7348 17.25 22V26C17.25 26.2652 17.3554 26.5196 17.5429 26.7071C17.7304 26.8946 17.9848 27 18.25 27H21.25V30C21.25 30.2652 21.3554 30.5196 21.5429 30.7071C21.7304 30.8946 21.9848 31 22.25 31H26.25C26.5152 31 26.7696 30.8946 26.9571 30.7071C27.1446 30.5196 27.25 30.2652 27.25 30V27H30.25C30.5152 27 30.7696 26.8946 30.9571 26.7071C31.1446 26.5196 31.25 26.2652 31.25 26V22C31.25 21.7348 31.1446 21.4804 30.9571 21.2929C30.7696 21.1054 30.5152 21 30.25 21ZM29.25 25H26.25C25.9848 25 25.7304 25.1054 25.5429 25.2929C25.3554 25.4804 25.25 25.7348 25.25 26V29H23.25V26C23.25 25.7348 23.1446 25.4804 22.9571 25.2929C22.7696 25.1054 22.5152 25 22.25 25H19.25V23H22.25C22.5152 23 22.7696 22.8946 22.9571 22.7071C23.1446 22.5196 23.25 22.2652 23.25 22V19H25.25V22C25.25 22.2652 25.3554 22.5196 25.5429 22.7071C25.7304 22.8946 25.9848 23 26.25 23H29.25V25Z" fill="#7E7E7E"/>
<path d="M57.4 38.78C54.2986 38.3091 51.3616 37.0794 48.85 35.2C48.6776 35.0686 48.4668 34.9975 48.25 34.9975C48.0332 34.9975 47.8224 35.0686 47.65 35.2C45.1384 37.0794 42.2014 38.3091 39.1 38.78C38.8639 38.8175 38.6489 38.9376 38.4932 39.1189C38.3375 39.3002 38.2513 39.531 38.25 39.77V49.78C38.2503 50.6725 38.4898 51.5486 38.9436 52.3171C39.3973 53.0857 40.0487 53.7186 40.83 54.15L40.89 54.18L47.82 57.47C47.9538 57.5358 48.1009 57.5699 48.25 57.5699C48.3991 57.5699 48.5462 57.5358 48.68 57.47L55.67 54.15C56.4505 53.7176 57.1012 53.0845 57.5548 52.3162C58.0084 51.5478 58.2484 50.6722 58.25 49.78V39.77C58.2487 39.531 58.1625 39.3002 58.0068 39.1189C57.8511 38.9376 57.6361 38.8175 57.4 38.78ZM56.25 49.78C56.2528 50.3061 56.1153 50.8234 55.8516 51.2786C55.588 51.7339 55.2077 52.1106 54.75 52.37L48.25 55.46L41.77 52.39C41.3085 52.1282 40.9246 51.7488 40.6576 51.2902C40.3906 50.8317 40.2499 50.3106 40.25 49.78V40.61C43.1221 40.05 45.8464 38.899 48.25 37.23C50.6536 38.899 53.3779 40.05 56.25 40.61V49.78Z" fill="#861F41"/>
<path d="M43.957 47.293L42.543 48.707L45.543 51.707C45.7305 51.8945 45.9848 51.9998 46.25 51.9998C46.5151 51.9998 46.7694 51.8945 46.957 51.707L54.957 43.707L53.543 42.293L46.25 49.586L43.957 47.293Z" fill="#861F41"/>
</svg>
