<svg width="64" height="64" viewBox="0 0 64 64" fill="none" xmlns="http://www.w3.org/2000/svg">
<g clip-path="url(#clip0_1659_3614)">
<path d="M31.9999 14.4516C34.8458 14.4516 37.1612 12.1363 37.1612 9.29033C37.1612 6.44439 34.8458 4.12904 31.9999 4.12904C29.154 4.12904 26.8386 6.44439 26.8386 9.29033C26.8386 12.1363 29.154 14.4516 31.9999 14.4516ZM31.9999 6.19355C33.7073 6.19355 35.0967 7.58297 35.0967 9.29033C35.0967 10.9977 33.7073 12.3871 31.9999 12.3871C30.2926 12.3871 28.9031 10.9977 28.9031 9.29033C28.9031 7.58297 30.2926 6.19355 31.9999 6.19355Z" fill="#861F41"/>
<path d="M32.0003 24.3623L39.255 15.2939C40.568 13.6537 41.2906 11.5923 41.2906 9.49058V9.29032C41.2906 4.16826 37.1223 0 32.0003 0C26.8782 0 22.71 4.16826 22.71 9.29032V9.49058C22.71 11.5923 23.4325 13.6537 24.7456 15.2939L32.0003 24.3623ZM24.7745 9.29032C24.7745 5.30581 28.0158 2.06452 32.0003 2.06452C35.9848 2.06452 39.2261 5.30581 39.2261 9.29032V9.49058C39.2261 11.1246 38.6635 12.7288 37.6426 14.0046L32.0003 21.057L26.358 14.0036C25.3371 12.7288 24.7745 11.1246 24.7745 9.49058V9.29032Z" fill="#861F41"/>
<path d="M54.7101 4.12903C51.8642 4.12903 49.5488 6.44438 49.5488 9.29032C49.5488 12.1363 51.8642 14.4516 54.7101 14.4516C57.5561 14.4516 59.8714 12.1363 59.8714 9.29032C59.8714 6.44438 57.5561 4.12903 54.7101 4.12903ZM54.7101 12.3871C53.0028 12.3871 51.6133 10.9977 51.6133 9.29032C51.6133 7.58296 53.0028 6.19354 54.7101 6.19354C56.4175 6.19354 57.8069 7.58296 57.8069 9.29032C57.8069 10.9977 56.4175 12.3871 54.7101 12.3871Z" fill="#7E7E7E"/>
<path d="M54.7093 0C49.5872 0 45.4189 4.16826 45.4189 9.29032V9.49058C45.4189 11.5923 46.1415 13.6537 47.4546 15.2939L54.7093 24.3623L61.964 15.2939C63.277 13.6537 63.9996 11.5923 63.9996 9.49058V9.29032C63.9996 4.16826 59.8313 0 54.7093 0ZM61.9351 9.49058C61.9351 11.1246 61.3725 12.7288 60.3516 14.0046L54.7093 21.057L49.0669 14.0036C48.046 12.7288 47.4835 11.1246 47.4835 9.49058V9.29032C47.4835 5.30581 50.7248 2.06452 54.7093 2.06452C58.6938 2.06452 61.9351 5.30581 61.9351 9.29032V9.49058Z" fill="#7E7E7E"/>
<path d="M9.29044 14.4516C12.1364 14.4516 14.4517 12.1363 14.4517 9.29033C14.4517 6.44439 12.1364 4.12904 9.29044 4.12904C6.44451 4.12904 4.12915 6.44439 4.12915 9.29033C4.12915 12.1363 6.44451 14.4516 9.29044 14.4516ZM9.29044 6.19355C10.9978 6.19355 12.3872 7.58297 12.3872 9.29033C12.3872 10.9977 10.9978 12.3871 9.29044 12.3871C7.58309 12.3871 6.19367 10.9977 6.19367 9.29033C6.19367 7.58297 7.58309 6.19355 9.29044 6.19355Z" fill="#7E7E7E"/>
<path d="M9.29032 24.3623L16.545 15.2939C17.8581 13.6537 18.5806 11.5923 18.5806 9.49058V9.29032C18.5806 4.16826 14.4124 0 9.29032 0C4.16826 0 0 4.16826 0 9.29032V9.49058C0 11.5923 0.722581 13.6537 2.03561 15.2939L9.29032 24.3623ZM2.06452 9.29032C2.06452 5.30581 5.30581 2.06452 9.29032 2.06452C13.2748 2.06452 16.5161 5.30581 16.5161 9.29032V9.49058C16.5161 11.1246 15.9535 12.7288 14.9326 14.0046L9.29032 21.057L3.648 14.0036C2.6271 12.7288 2.06452 11.1246 2.06452 9.49058V9.29032Z" fill="#7E7E7E"/>
<path d="M61.9355 41.3667V29.6712C61.9355 28.3768 61.0581 27.295 59.871 26.9574V22.7097H57.8064V27.103L55.7419 27.7223V25.8065H53.6774V28.3417L49.5019 29.5948C48.2952 29.9572 47.4839 31.0472 47.4839 32.3076V33.0323H41.2903V30.9678C41.2903 29.8292 40.3644 28.9032 39.2258 28.9032H37.1613V26.8387H35.0968V28.9032H33.0323V24.7742H30.9677V28.9032H28.9032V26.8387H26.8387V28.9032H24.7742C23.6356 28.9032 22.7097 29.8292 22.7097 30.9678V33.0323H16.5161V32.3076C16.5161 31.0472 15.7048 29.9572 14.497 29.5938L10.3226 28.3417V25.8065H8.25806V27.7223L6.19355 27.103V22.7097H4.12903V26.9585C2.94194 27.296 2.06452 28.3778 2.06452 29.6723V41.3667C0.883613 41.6434 0 42.6994 0 43.9628C0 44.415 0.115613 44.864 0.336516 45.2604L0.426323 45.4225C6.79329 56.8816 18.8914 64 32 64C45.1086 64 57.2067 56.8816 63.5737 45.4225L63.6645 45.2594C63.8844 44.863 64 44.415 64 43.9618C64 42.6983 63.1164 41.6434 61.9355 41.3667ZM49.5484 32.3076C49.5484 31.9659 49.7683 31.6697 50.0955 31.5716L58.8831 28.9352C59.3621 28.7938 59.871 29.1737 59.871 29.6712V41.2903H53.6774V35.0968C53.6774 33.9582 52.7515 33.0323 51.6129 33.0323H49.5484V32.3076ZM51.6129 35.0968V41.2903H41.2903V35.0968H51.6129ZM24.7742 30.9678H39.2258V35.0968V41.2903H24.7742V35.0968V30.9678ZM22.7097 41.2903H12.3871V35.0968H22.7097V41.2903ZM5.11794 28.9363L13.9035 31.5716C14.2317 31.6697 14.4516 31.9659 14.4516 32.3076V33.0323H12.3871C11.2485 33.0323 10.3226 33.9582 10.3226 35.0968V41.2903H4.12903V29.6712C4.12903 29.1737 4.6369 28.7897 5.11794 28.9363ZM2.23071 44.4191L2.1409 44.257C2.09032 44.1672 2.06452 44.065 2.06452 43.9618C2.06452 43.6274 2.33703 43.3548 2.67148 43.3548H20.6452V44.3871C20.6452 44.9559 20.1817 45.4194 19.6129 45.4194H13.4194C11.712 45.4194 10.3226 46.8088 10.3226 48.5161C10.3226 50.2235 11.712 51.6129 13.4194 51.6129H25.8064C26.3752 51.6129 26.8387 52.0764 26.8387 52.6452C26.8387 53.2139 26.3752 53.6774 25.8064 53.6774H23.7419C22.0346 53.6774 20.6452 55.0668 20.6452 56.7742C20.6452 58.4816 22.0346 59.871 23.7419 59.871C24.3107 59.871 24.7742 60.3345 24.7742 60.9032V61.1479C15.3187 59.0916 7.03897 53.0736 2.23071 44.4191ZM26.8387 61.5277V60.9032C26.8387 59.1959 25.4493 57.8065 23.7419 57.8065C23.1732 57.8065 22.7097 57.343 22.7097 56.7742C22.7097 56.2054 23.1732 55.7419 23.7419 55.7419H25.8064C27.5138 55.7419 28.9032 54.3525 28.9032 52.6452C28.9032 50.9378 27.5138 49.5484 25.8064 49.5484H13.4194C12.8506 49.5484 12.3871 49.0849 12.3871 48.5161C12.3871 47.9474 12.8506 47.4839 13.4194 47.4839H19.6129C21.3203 47.4839 22.7097 46.0945 22.7097 44.3871V43.3548H37.1613V44.3871C37.1613 46.0945 38.5507 47.4839 40.2581 47.4839H50.5806C51.1494 47.4839 51.6129 47.9474 51.6129 48.5161C51.6129 49.0849 51.1494 49.5484 50.5806 49.5484H44.3871C42.6797 49.5484 41.2903 50.9378 41.2903 52.6452C41.2903 53.2139 40.8268 53.6774 40.2581 53.6774H36.129C34.4217 53.6774 33.0323 55.0668 33.0323 56.7742C33.0323 58.4816 34.4217 59.871 36.129 59.871C36.6978 59.871 37.1613 60.3345 37.1613 60.9032V61.5277C35.4674 61.7879 33.7445 61.9355 32 61.9355C30.2555 61.9355 28.5326 61.7879 26.8387 61.5277ZM61.8591 44.257L61.7693 44.4191C56.961 53.0736 48.6813 59.0916 39.2258 61.1479V60.9032C39.2258 59.1959 37.8364 57.8065 36.129 57.8065C35.5603 57.8065 35.0968 57.343 35.0968 56.7742C35.0968 56.2054 35.5603 55.7419 36.129 55.7419H40.2581C41.9654 55.7419 43.3548 54.3525 43.3548 52.6452C43.3548 52.0764 43.8183 51.6129 44.3871 51.6129H50.5806C52.288 51.6129 53.6774 50.2235 53.6774 48.5161C53.6774 46.8088 52.288 45.4194 50.5806 45.4194H40.2581C39.6893 45.4194 39.2258 44.9559 39.2258 44.3871V43.3548H61.3285C61.663 43.3548 61.9355 43.6274 61.9355 43.9618C61.9355 44.065 61.9097 44.1672 61.8591 44.257Z" fill="#7E7E7E"/>
<path d="M14.4512 37.1613H16.5157V39.2258H14.4512V37.1613Z" fill="#7E7E7E"/>
<path d="M18.5811 37.1613H20.6456V39.2258H18.5811V37.1613Z" fill="#7E7E7E"/>
<path d="M26.8386 33.0323H28.9031V35.0968H26.8386V33.0323Z" fill="#7E7E7E"/>
<path d="M30.9678 33.0323H33.0323V35.0968H30.9678V33.0323Z" fill="#7E7E7E"/>
<path d="M26.8386 37.1613H28.9031V39.2258H26.8386V37.1613Z" fill="#7E7E7E"/>
<path d="M30.9678 37.1613H33.0323V39.2258H30.9678V37.1613Z" fill="#7E7E7E"/>
<path d="M35.0967 33.0323H37.1612V35.0968H35.0967V33.0323Z" fill="#7E7E7E"/>
<path d="M35.0967 37.1613H37.1612V39.2258H35.0967V37.1613Z" fill="#7E7E7E"/>
<path d="M6.1936 37.1613H8.25812V39.2258H6.1936V37.1613Z" fill="#7E7E7E"/>
<path d="M6.1936 33.0323H8.25812V35.0968H6.1936V33.0323Z" fill="#7E7E7E"/>
<path d="M47.4834 37.1613H49.5479V39.2258H47.4834V37.1613Z" fill="#7E7E7E"/>
<path d="M43.3545 37.1613H45.419V39.2258H43.3545V37.1613Z" fill="#7E7E7E"/>
<path d="M55.7422 37.1613H57.8067V39.2258H55.7422V37.1613Z" fill="#7E7E7E"/>
<path d="M55.7422 33.0322H57.8067V35.0967H55.7422V33.0322Z" fill="#7E7E7E"/>
</g>
<defs>
<clipPath id="clip0_1659_3614">
<rect width="64" height="64" fill="white"/>
</clipPath>
</defs>
</svg>
